{"title":"Jai Ho (2014) - Photocopy Video Song - Salman Khan HD 1080p {DAK","uid":9427600,"size":57836048,"categoryP":"video","categoryS":"music_videos","magnet":"?xt=urn:btih:c4453e36fd74c42cc6f36d3764cab7096b15e13b&amp;dn=Jai+Ho+%282014%29+-+Photocopy+Video+Song+-+Salman+Khan+HD+1080p+%7BDAK&amp;tr=udp%3A%2F%2Ftracker.openbittorrent.com%3A80&amp;tr=udp%3A%2F%2Fopen.demonii.com%3A1337&amp;tr=udp%3A%2F%2Ftracker.coppersurfer.tk%3A6969&amp;tr=udp%3A%2F%2Fexodus.desync.com%3A6969","seeders":1,"leechers":0,"uploader":"Palash995","files":1,"time":1388739813,"description":"Jai Ho (2014) - Photocopy Video Song - Salman Khan HD 1080p[/color][/size]\n\n[img]http://i1.ytimg.com/vi/QGXvAxh2DeE/mqdefault.jpg[/img]\n\n\nEnjoy the video song &quot;Photocopy from Jai Ho&quot; in voice of Himesh Reshammiya, Keerthi Sagathia, Palak muchhal. The music is composed by Sajid Wajid while lyrics are penned by Kausar Munir.\n\nSong: Photocopy\nSinger: Himesh Reshammiya, Keerthi Sagathia, Palak muchhal.\nMusic: Sajid wajid\nLyrics: Kausar Munir\nMovie; Jai Ho\nMusic Label: T-Series\n\nScreenshots:-\n\n[img]http://img839.imageshack.us/img839/5518/v287.jpg[/img]\n\n[img]http://img836.imageshack.us/img836/3378/6xma.jpg[/img]\n\n[img]http://img9.imageshack.us/img9/226/dd9b.jpg[/img]\n\nMedia Info:-\n\nGeneral\nComplete name                            : Jai Ho (2014) - Photocopy Video Song - Salman Khan HD 1080p {DAKU RG} {GreatPalash}.mp4\nFormat                                   : MPEG-4\nFormat profile                           : Base Media\nCodec ID                                 : isom\nFile size                                : 55.2 MiB\nDuration                                 : 1mn 48s\nOverall bit rate mode                    : Variable\nOverall bit rate                         : 4257 Kbps\nEncoded date                             : UTC 2014-01-01 13:40:31\nTagged date                              : UTC 2014-01-01 13:40:31\n\nVideo\nID                                       : 1\nFormat                                   : AVC\nFormat/Info                              : Advanced Video Codec\nFormat profile                           : &lt;a class=&quot;__cf_email__&quot; href=&quot;/cdn-cgi/l/email-protection&quot; data-cfemail=&quot;2e664749466e621a001e&quot;&gt;[email&amp;#160;protected]&lt;/a&gt;&lt;script cf-hash='f9e31' type=&quot;text/javascript&quot;&gt;\n/* &lt;![CDATA[ */!function(){try{var t=&quot;currentScript&quot;in document?document.currentScript:function(){for(var t=document.getElementsByTagName(&quot;script&quot;),e=t.length;e--;)if(t[e].getAttribute(&quot;cf-hash&quot;))return t[e]}();if(t&amp;&amp;t.previousSibling){var e,r,n,i,c=t.previousSibling,a=c.getAttribute(&quot;data-cfemail&quot;);if(a){for(e=&quot;&quot;,r=parseInt(a.substr(0,2),16),n=2;a.length-n;n+=2)i=parseInt(a.substr(n,2),16)^r,e+=String.fromCharCode(i);e=document.createTextNode(e),c.parentNode.replaceChild(e,c)}}}catch(u){}}();/* ]]&gt; */&lt;/script&gt;\nFormat settings, CABAC                   : Yes\nFormat settings, ReFrames                : 2 frames\nCodec ID                                 : avc1\nCodec ID/Info                            : Advanced Video Coding\nDuration                                 : 1mn 48s\nBit rate                                 : 4 132 Kbps\nWidth                                    : 1920 pixels\nHeight                                   : 1080 pixels\nDisplay aspect ratio                     : 16:9\nFrame rate mode                          : Constant\nFrame rate                               : 25.000 fps\nColor space                              : YUV\nChroma subsampling                       : 4:2:0\nBit depth                                : 8 bits\nScan type                                : Progressive\nBits/(Pixel*Frame)                       : 0.080\nStream size                              : 53.5 MiB (97%)\nEncoded date                             : UTC 2014-01-01 13:40:31\nTagged date                              : UTC 2014-01-01 13:40:31\n\nAudio\nID                                       : 2\nFormat                                   : AAC\nFormat/Info                              : Advanced Audio Codec\nFormat profile                           : LC\nCodec ID                                 : 40\nDuration                                 : 1mn 48s\nBit rate mode                            : Variable\nBit rate                                 : 126 Kbps\nChannel count                            : 2 channels\nChannel positions                        : Front: L R\nSampling rate                            : 44.1 KHz\nCompression mode                         : Lossy\nStream size                              : 1.63 MiB (3%)\nEncoded date                             : UTC 2014-01-01 13:40:22\nTagged date                              : UTC 2014-01-01 13:40:22\n\n[IMG]http://imageshack.us/a/img89/4822/zka.gif[/IMG]\n\n[IMG]http://imageshack.us/a/img200/185/tj8.gif[/IMG]\n\n[IMG]http://imageshack.us/a/img593/9603/ua8.gif[/IMG]\n\n[IMG]http://imageshack.us/a/img707/5608/ysmp.png[/IMG]","torrent":{"xt":"urn:btih:c4453e36fd74c42cc6f36d3764cab7096b15e13b","amp;dn":"Jai+Ho+%282014%29+-+Photocopy+Video+Song+-+Salman+Khan+HD+1080p+%7BDAK","amp;tr":["udp%3A%2F%2Ftracker.openbittorrent.com%3A80","udp%3A%2F%2Fopen.demonii.com%3A1337","udp%3A%2F%2Ftracker.coppersurfer.tk%3A6969","udp%3A%2F%2Fexodus.desync.com%3A6969"],"infoHash":"c4453e36fd74c42cc6f36d3764cab7096b15e13b","infoHashBuffer":{"type":"Buffer","data":[196,69,62,54,253,116,196,44,198,243,109,55,100,202,183,9,107,21,225,59]},"announce":[],"urlList":[]}}